<?xml version="1.0" standalone="no"?>
<!DOCTYPE svg PUBLIC "-//W3C//DTD SVG 20010904//EN"
 "http://www.w3.org/TR/2001/REC-SVG-20010904/DTD/svg10.dtd">
<svg version="1.0" xmlns="http://www.w3.org/2000/svg"
 width="1200.000000pt" height="1200.000000pt" viewBox="0 0 1200.000000 1200.000000"
 preserveAspectRatio="xMidYMid meet">

<g transform="translate(0.000000,1200.000000) scale(0.100000,-0.100000)"
fill="#000000" stroke="none">
<path d="M5493 7704 c-3 -8 -1 -20 6 -27 22 -22 12 -37 -25 -37 -27 0 -43 -7
-65 -31 l-29 -31 0 -419 c0 -449 1 -459 51 -485 42 -21 1177 -21 1218 1 51 26
52 37 49 494 l-3 423 -28 24 -28 24 -345 0 c-353 0 -368 2 -333 37 7 7 9 19 6
27 -9 24 -235 24 -244 0 -3 -8 -1 -20 6 -27 24 -24 12 -37 -34 -37 -46 0 -58
13 -34 37 7 7 9 19 6 27 -5 13 -23 16 -87 16 -64 0 -82 -3 -87 -16z m117 -49
c0 -9 -9 -15 -25 -15 -16 0 -25 6 -25 15 0 9 9 15 25 15 16 0 25 -6 25 -15z
m300 0 c0 -12 -14 -15 -65 -15 -51 0 -65 3 -65 15 0 12 14 15 65 15 51 0 65
-3 65 -15z m726 -69 c18 -14 19 -30 19 -430 0 -385 -1 -417 -18 -433 -17 -17
-54 -18 -596 -18 -475 0 -581 2 -594 14 -15 12 -17 55 -17 437 0 392 1 424 18
433 11 7 220 10 593 11 481 0 578 -2 595 -14z"/>
<path d="M6430 7500 l0 -30 90 0 90 0 0 30 0 30 -90 0 -90 0 0 -30z"/>
<path d="M6032 7469 c-64 -25 -139 -97 -172 -164 -36 -72 -35 -198 0 -270 31
-64 92 -124 155 -156 42 -20 65 -24 140 -24 74 0 97 4 133 23 116 62 182 166
182 288 0 92 -22 153 -77 214 -66 73 -129 103 -228 107 -63 2 -91 -1 -133 -18z
m245 -54 c225 -110 190 -440 -54 -511 -127 -37 -261 26 -319 151 -43 90 -26
220 38 295 80 95 218 122 335 65z"/>
<path d="M6079 7387 c-207 -77 -205 -358 3 -433 82 -30 188 1 246 71 91 111
57 281 -70 346 -52 26 -132 33 -179 16z"/>
<path d="M5463 7384 c-8 -20 8 -36 26 -25 15 10 8 41 -9 41 -6 0 -13 -7 -17
-16z"/>
<path d="M5533 7384 c-7 -18 17 -38 31 -24 11 11 1 40 -14 40 -6 0 -13 -7 -17
-16z"/>
<path d="M5613 7384 c-8 -20 8 -36 26 -25 15 10 8 41 -9 41 -6 0 -13 -7 -17
-16z"/>
<path d="M5683 7384 c-7 -18 17 -38 31 -24 11 11 1 40 -14 40 -6 0 -13 -7 -17
-16z"/>
<path d="M5763 7384 c-8 -20 8 -36 26 -25 15 10 8 41 -9 41 -6 0 -13 -7 -17
-16z"/>
<path d="M5833 7384 c-7 -18 17 -38 31 -24 11 11 1 40 -14 40 -6 0 -13 -7 -17
-16z"/>
<path d="M6433 7384 c-7 -18 17 -38 31 -24 11 11 1 40 -14 40 -6 0 -13 -7 -17
-16z"/>
<path d="M6513 7384 c-8 -20 8 -36 26 -25 15 10 8 41 -9 41 -6 0 -13 -7 -17
-16z"/>
<path d="M6583 7384 c-7 -18 17 -38 31 -24 11 11 1 40 -14 40 -6 0 -13 -7 -17
-16z"/>
<path d="M5730 7195 c-26 -32 13 -81 48 -59 34 22 22 74 -18 74 -10 0 -23 -7
-30 -15z"/>
<path d="M5463 6784 c-8 -20 8 -36 26 -25 15 10 8 41 -9 41 -6 0 -13 -7 -17
-16z"/>
<path d="M5533 6784 c-7 -18 17 -38 31 -24 11 11 1 40 -14 40 -6 0 -13 -7 -17
-16z"/>
<path d="M5613 6784 c-8 -20 8 -36 26 -25 15 10 8 41 -9 41 -6 0 -13 -7 -17
-16z"/>
<path d="M5683 6784 c-7 -18 17 -38 31 -24 11 11 1 40 -14 40 -6 0 -13 -7 -17
-16z"/>
<path d="M5763 6784 c-8 -20 8 -36 26 -25 15 10 8 41 -9 41 -6 0 -13 -7 -17
-16z"/>
<path d="M5833 6784 c-7 -18 17 -38 31 -24 11 11 1 40 -14 40 -6 0 -13 -7 -17
-16z"/>
<path d="M5913 6784 c-8 -20 8 -36 26 -25 15 10 8 41 -9 41 -6 0 -13 -7 -17
-16z"/>
<path d="M5983 6784 c-7 -18 17 -38 31 -24 11 11 1 40 -14 40 -6 0 -13 -7 -17
-16z"/>
<path d="M6063 6784 c-8 -20 8 -36 26 -25 15 10 8 41 -9 41 -6 0 -13 -7 -17
-16z"/>
<path d="M6133 6784 c-7 -18 17 -38 31 -24 11 11 1 40 -14 40 -6 0 -13 -7 -17
-16z"/>
<path d="M6213 6784 c-8 -20 8 -36 26 -25 15 10 8 41 -9 41 -6 0 -13 -7 -17
-16z"/>
<path d="M6283 6784 c-7 -18 17 -38 31 -24 11 11 1 40 -14 40 -6 0 -13 -7 -17
-16z"/>
<path d="M6363 6784 c-8 -20 8 -36 26 -25 15 10 8 41 -9 41 -6 0 -13 -7 -17
-16z"/>
<path d="M6433 6784 c-7 -18 17 -38 31 -24 11 11 1 40 -14 40 -6 0 -13 -7 -17
-16z"/>
<path d="M6513 6784 c-8 -20 8 -36 26 -25 15 10 8 41 -9 41 -6 0 -13 -7 -17
-16z"/>
<path d="M6583 6784 c-7 -18 17 -38 31 -24 11 11 1 40 -14 40 -6 0 -13 -7 -17
-16z"/>
<path d="M2440 6645 l0 -75 1350 0 1350 0 0 75 0 75 -1350 0 -1350 0 0 -75z"/>
<path d="M6940 6645 l0 -75 1350 0 1350 0 0 75 0 75 -1350 0 -1350 0 0 -75z"/>
<path d="M2835 5603 c-44 -23 -65 -44 -86 -85 -17 -32 -19 -60 -19 -213 0
-156 2 -180 20 -215 33 -64 81 -94 159 -98 59 -3 71 0 112 26 53 34 89 97 89
155 0 43 -4 44 -47 17 -23 -14 -33 -27 -33 -44 0 -31 -50 -82 -87 -89 -43 -8
-95 14 -120 52 -22 32 -23 44 -23 196 0 152 1 164 23 196 62 92 194 58 211
-56 4 -25 9 -45 12 -45 3 0 18 7 34 15 36 19 38 42 9 103 -31 64 -95 102 -168
102 -31 -1 -69 -8 -86 -17z"/>
<path d="M3268 5607 l-28 -11 0 -303 c0 -167 2 -303 4 -303 1 0 17 5 35 11
l31 11 0 143 c0 79 4 155 10 170 6 15 24 32 45 41 32 13 39 13 70 -2 45 -21
48 -34 49 -219 1 -93 5 -150 11 -149 6 0 23 4 38 8 l28 8 -3 169 c-3 152 -5
170 -24 196 -48 65 -127 90 -198 63 l-26 -10 0 95 c0 52 -3 95 -7 94 -5 -1
-20 -6 -35 -12z"/>
<path d="M4708 5607 l-28 -11 0 -245 c1 -270 4 -285 64 -332 44 -35 130 -38
175 -7 19 12 43 35 54 49 23 31 36 119 18 119 -25 0 -71 -31 -71 -49 0 -19
-34 -54 -62 -64 -28 -10 -78 13 -93 44 -12 22 -15 76 -15 269 0 132 -3 240 -7
239 -5 -1 -20 -6 -35 -12z"/>
<path d="M6675 5603 c-44 -23 -65 -44 -86 -85 -17 -32 -19 -60 -19 -213 0
-156 2 -180 20 -215 33 -64 81 -94 159 -98 59 -3 71 0 112 26 53 34 89 97 89
155 0 43 -4 44 -47 17 -23 -14 -33 -27 -33 -44 0 -31 -50 -82 -87 -89 -43 -8
-95 14 -120 52 -22 32 -23 44 -23 196 0 152 1 164 23 196 62 92 194 58 211
-56 4 -25 9 -45 12 -45 3 0 18 7 34 15 36 19 38 42 9 103 -31 64 -95 102 -168
102 -31 -1 -69 -8 -86 -17z"/>
<path d="M8068 5608 c-27 -9 -28 -12 -28 -84 0 -56 -3 -74 -14 -74 -7 0 -16
-8 -19 -17 -2 -10 -8 -26 -12 -35 -6 -15 -2 -18 19 -18 l26 0 0 -136 c0 -152
9 -185 63 -224 47 -36 131 -39 176 -8 19 12 43 35 54 49 23 31 36 119 18 119
-25 0 -71 -31 -71 -49 0 -19 -34 -54 -63 -64 -28 -10 -86 19 -97 48 -6 15 -10
80 -10 146 l0 119 94 0 c81 0 94 2 99 18 2 9 8 25 12 35 7 16 -2 17 -99 17
l-106 0 0 85 c0 47 -3 85 -7 84 -5 0 -20 -5 -35 -11z"/>
<path d="M8508 5595 c-19 -42 0 -79 42 -83 38 -4 60 16 60 54 0 54 -80 76
-102 29z"/>
<path d="M3820 5443 c-24 -9 -70 -55 -86 -85 -16 -31 -19 -98 -4 -98 27 0 59
25 67 53 5 19 21 39 41 50 27 16 37 17 67 7 34 -11 55 -35 55 -63 0 -8 -38
-29 -95 -51 -113 -45 -145 -76 -145 -140 0 -76 59 -126 147 -126 66 0 76 8 61
47 -11 29 -15 31 -54 30 -29 -1 -48 4 -63 17 -26 23 -26 38 -3 59 28 26 144
70 151 58 3 -5 6 -53 5 -105 -1 -53 2 -99 7 -102 5 -2 22 2 39 11 l30 16 0
150 c0 166 -7 195 -59 243 -26 25 -41 30 -88 33 -32 1 -65 0 -73 -4z"/>
<path d="M4282 5433 c-18 -9 -43 -30 -55 -47 -20 -29 -22 -44 -25 -213 -2
-101 -1 -183 1 -183 2 0 18 5 36 11 l31 11 0 143 c0 79 4 155 10 170 29 76
160 56 160 -25 0 -37 8 -41 49 -24 31 13 33 17 27 47 -20 101 -139 157 -234
110z"/>
<path d="M5242 5433 c-64 -31 -77 -63 -80 -200 -3 -99 0 -128 13 -157 25 -52
68 -79 134 -84 68 -5 113 21 148 83 23 41 31 105 13 105 -24 0 -70 -32 -70
-48 -1 -25 -22 -50 -54 -62 -37 -14 -93 10 -106 46 -6 15 -9 28 -8 30 2 1 57
27 123 57 l120 53 -1 47 c-1 111 -127 182 -232 130z m112 -67 c29 -12 56 -49
44 -61 -4 -4 -159 -75 -164 -75 -2 0 -4 19 -4 43 0 47 20 84 54 97 29 12 32
12 70 -4z"/>
<path d="M5715 5415 c-29 -30 -35 -43 -35 -78 0 -78 52 -127 136 -127 11 0 30
-10 42 -23 38 -41 25 -97 -28 -115 -54 -19 -110 14 -110 65 0 38 -15 46 -50
28 -27 -14 -31 -20 -25 -43 20 -82 81 -132 159 -132 77 0 125 38 146 113 22
77 -36 158 -122 172 -60 10 -78 22 -78 50 0 22 32 55 53 55 5 0 22 -14 37 -30
25 -27 31 -29 54 -19 30 14 31 20 11 59 -22 42 -53 60 -107 60 -41 0 -52 -5
-83 -35z"/>
<path d="M7180 5443 c-24 -9 -70 -55 -86 -85 -16 -31 -19 -98 -4 -98 27 0 59
25 67 53 5 19 21 39 41 50 27 16 37 17 67 7 34 -11 55 -35 55 -63 0 -8 -38
-29 -95 -51 -113 -45 -145 -76 -145 -140 0 -76 59 -126 147 -126 66 0 76 8 61
47 -11 29 -15 31 -54 30 -29 -1 -48 4 -63 17 -26 23 -26 38 -3 59 28 26 144
70 151 58 3 -5 6 -53 5 -105 -1 -53 2 -99 7 -102 5 -2 22 2 39 11 l30 16 0
150 c0 166 -7 195 -59 243 -26 25 -41 30 -88 33 -32 1 -65 0 -73 -4z"/>
<path d="M7629 5426 c-61 -42 -69 -71 -69 -265 0 -94 2 -171 4 -171 1 0 17 5
35 11 l31 11 0 143 c0 79 4 155 10 170 6 15 24 32 45 41 32 13 39 13 70 -2 45
-21 48 -34 49 -219 1 -93 5 -150 11 -149 6 0 23 4 38 8 l28 8 -3 169 c-3 152
-5 170 -24 196 -56 76 -154 97 -225 49z"/>
<path d="M8548 5438 l-28 -10 0 -160 c0 -182 8 -213 69 -254 70 -47 169 -27
224 47 23 31 36 119 18 119 -25 0 -71 -31 -71 -49 0 -19 -34 -54 -63 -64 -28
-10 -86 19 -97 48 -6 15 -10 96 -10 181 0 85 -3 154 -7 153 -5 0 -20 -5 -35
-11z"/>
<path d="M9069 5426 c-61 -42 -69 -71 -69 -265 0 -94 2 -171 4 -171 1 0 17 5
35 11 l31 11 0 143 c0 79 4 155 10 170 6 15 24 32 45 41 32 13 39 13 70 -2 45
-21 48 -34 49 -219 1 -93 5 -150 11 -149 6 0 23 4 38 8 l28 8 -3 169 c-3 152
-5 170 -24 196 -56 76 -154 97 -225 49z"/>
<path d="M2440 4020 l0 -80 3600 0 3600 0 0 80 0 80 -3600 0 -3600 0 0 -80z"/>
</g>
</svg>
